# AST/ASF file generated using VICON BodyLanguage
# -----------------------------------------------
:version 1.10
:name VICON
:units
  mass 1.0
  length 0.45
  angle deg
:documentation
   .ast/.asf automatically generated from VICON data using
   VICON BodyBuilder and BodyLanguage model FoxedUp or BRILLIANT.MOD
:root
   order TX TY TZ RX RY RZ
   axis XYZ
   position 0 0 0  
   orientation 0 0 0 
:bonedata
  begin
     id 1 
     name lhipjoint
     direction 0.560651 -0.75055 0.34978 
     length 2.44936 
     axis 0 0 0  XYZ
  end
  begin
     id 2 
     name lfemur
     direction 0.34202 -0.939693 0  
     length 7.42139  
     axis 0 0 20  XYZ
    dof rx ry rz
    limits (-160.0 20.0)
           (-70.0 70.0)
           (-60.0 70.0)
  end
  begin
     id 3 
     name ltibia
     direction 0.34202 -0.939693 0   
     length 7.75674   
     axis 0 0 20   XYZ
    dof rx
    limits (-10.0 170.0)
  end
  begin
     id 4 
     name lfoot
     direction 0.0925879 -0.254383 0.962661   
     length 2.38688   
     axis -90 7.62852e-016 20   XYZ
    dof rx rz
    limits (-45.0 90.0)
           (-70.0 20.0)
  end
  begin
     id 5 
     name ltoes
     direction 1.53567e-011 -4.21973e-011 1   
     length 1.19228   
     axis -90 7.62852e-016 20   XYZ
    dof rx
    limits (-90.0 20.0)
  end
  begin
     id 6 
     name rhipjoint
     direction -0.540087 -0.762838 0.355506   
     length 2.4099  
     axis 0 0 0  XYZ 
  end
  begin
     id 7 
     name rfemur
     direction -0.34202 -0.939693 0   
     length 7.70794   
     axis 0 0 -20   XYZ
    dof rx ry rz
    limits (-160.0 20.0)
           (-70.0 70.0)
           (-70.0 60.0)
  end
  begin
     id 8 
     name rtibia
     direction -0.34202 -0.939693 0   
     length 7.66106   
     axis 0 0 -20   XYZ
    dof rx
    limits (-10.0 170.0)
 end
 begin
     id 9 
     name rfoot
     direction -0.0830975 -0.228308 0.970036   
     length 2.4989  
     axis -90 -7.62852e-016 -20   XYZ
    dof rx rz
    limits (-45.0 90.0)
           (-20.0 70.0)
  end
  begin
     id 10 
     name rtoes
     direction -1.53517e-011 -4.21842e-011 1   
     length 1.2498   
     axis -90 -7.62852e-016 -20   XYZ
    dof rx
    limits (-90.0 20.0)
  end
  begin
     id 11 
     name lowerback
     direction 0.0266356 0.99402 -0.105896   
     length 2.1545   
     axis 0 0 0   XYZ
    dof rx ry rz
    limits (-20.0 45.0)
           (-30.0 30.0)
           (-30.0 30.0)
  end
  begin
     id 12 
     name upperback
     direction 0.0130547 0.999192 0.0380027   
     length 2.1434   
     axis 0 0 0   XYZ
    dof rx ry rz
    limits (-20.0 45.0)
           (-30.0 30.0)
           (-30.0 30.0)
  end
  begin
     id 13 
     name thorax
     direction 0.000590299 0.996288 0.0860764   
     length 2.19049   
     axis 0 0 0   XYZ
    dof rx ry rz
    limits (-20.0 45.0)
           (-30.0 30.0)
           (-30.0 30.0)
  end
  begin
     id 14 
     name lowerneck
     direction -0.0432125 0.978219 0.203028   
     length 1.62441   
     axis 0 0 0   XYZ
    dof rx ry rz
    limits (-20.0 45.0)
           (-30.0 30.0)
           (-30.0 30.0)
  end
  begin
     id 15 
     name upperneck
     direction -0.0192309 0.991699 -0.127138   
     length 1.66666   
     axis 0 0 0   XYZ
    dof rx ry rz
    limits (-20.0 45.0)
           (-30.0 30.0)
           (-30.0 30.0)
  end
  begin
     id 16
     name head
     direction -0.00434499 0.997882 -0.0649107  
     length 1.67142  
     axis 0 0 0   XYZ
    dof rx ry rz
    limits (-20.0 45.0)
           (-30.0 30.0)
           (-30.0 30.0)
  end
  begin
     id 17 
     name lclavicle
     direction 0.970351 0.240904 -0.0196058  
     length 4.04862  
     axis 0 0 0   XYZ
    dof ry rz
    limits (-20.0 10.0)
           (0.0 20.0)
  end
  begin
     id 18 
     name lhumerus
     direction 1 -4.4896e-011 -1.40911e-018   
     length 5.58345   
     axis 180 -30 -90   XYZ
    dof rx ry rz
    limits (-60.0 90.0)
           (-90.0 90.0)
           (-90.0 90.0)
  end
  begin
     id 19
     name lradius
     direction 1 -4.48968e-011 5.88912e-028   
     length 3.71087   
     axis 180 -30 -90   XYZ
    dof rx
    limits (-10.0 170.0)
  end
  begin
     id 20
     name lwrist
     direction 1 -4.48955e-011 -8.83775e-028   
     length 1.85544   
     axis 5.52448e-016 90 90   XYZ
    dof ry
    limits (-180.0 0.0)
 end
  begin
     id 21 
     name lhand
     direction 1 -4.49035e-011 -1.76755e-027   
     length 0.562322   
     axis 1.12785e-015 90 90   XYZ
    dof rx rz
    limits (-90.0 90.0)
           (-45.0 45.0)
  end
  begin
     id 22 
     name lfingers
     direction 1 -4.48824e-011 -3.5351e-027   
     length 0.453359   
     axis 2.2557e-015 90 90   XYZ
    dof rx
    limits (0.0 90.0)
  end
  begin
     id 23
     name lthumb
     direction 0.707107 -6.34888e-011 0.707107   
     length 0.650935   
     axis -90 45 2.85299e-015   XYZ
    dof rx rz
    limits (-45.0 45.0)
           (-45.0 45.0)
  end
  begin
     id 24 
     name rclavicle
     direction -0.96165 0.268562 -0.0557131   
     length 4.05446  
     axis 0 0 0   XYZ 
    dof ry rz
    limits (-10.0 20.0)
           (-20.0 0.0)
  end
  begin
     id 25 
     name rhumerus
     direction -1 -4.48957e-011 -3.36329e-027  
     length 5.20357   
     axis 180 30 90   XYZ
    dof rx ry rz
    limits (-90.0 60.0)
           (-90.0 90.0)
           (-90.0 90.0)
  end
  begin
     id 26 
     name rradius
     direction -1 -4.48974e-011 4.51441e-027   
     length 3.64937   
     axis 180 30 90   XYZ
    dof rx
    limits (-10.0 170.0)
  end
  begin
     id 27 
     name rwrist
     direction -1 -4.4896e-011 -8.83775e-028   
     length 1.82468   
     axis 5.52448e-016 -90 -90   XYZ
    dof ry
    limits (-180.0 0.0)
  end
  begin
     id 28
     name rhand
     direction -1 -4.48996e-011 -1.76755e-027   
     length 0.617996   
     axis 1.12785e-015 -90 -90   XYZ
    dof rx rz
    limits (-90.0 90.0)
           (-45.0 45.0)
  end
  begin
     id 29
     name rfingers
     direction -1 -4.48957e-011 -3.5351e-027   
     length 0.498244   
     axis 2.2557e-015 -90 -90   XYZ
    dof rx
    limits (0.0 90.0)
  end
  begin
     id 30
     name rthumb
     direction -0.707107 -6.34931e-011 0.707107   
     length 0.715382   
     axis -90 -45 -2.85299e-015   XYZ
    dof rx rz
    limits (-45.0 45.0)
           (-45.0 45.0)
  end
:hierarchy
  begin
    root lhipjoint rhipjoint lowerback
    lhipjoint lfemur
    lfemur ltibia
    ltibia lfoot
    lfoot ltoes
    rhipjoint rfemur
    rfemur rtibia
    rtibia rfoot
    rfoot rtoes
    lowerback upperback
    upperback thorax
    thorax lowerneck lclavicle rclavicle
    lowerneck upperneck
    upperneck head
    lclavicle lhumerus
    lhumerus lradius
    lradius lwrist
    lwrist lhand lthumb
    lhand lfingers
    rclavicle rhumerus
    rhumerus rradius
    rradius rwrist
    rwrist rhand rthumb
    rhand rfingers
  end

#!OML:ASF H:\ManfredETheater\Project 1\Capture day 2\Session 1\Male1.ASF
:FULLY-SPECIFIED
:DEGREES
17
root 1.11654 14.8481 -0.341525 -20.6905 3.46412 -4.16602
lowerback 22.274 0.819276 3.14679
upperback 2.32458 2.06976 1.96309
thorax -9.87269 0.900522 -0.260378
lowerneck -22.3632 -2.68008 -3.66534
upperneck 21.6733 -2.04916 -1.57928
head 10.7076 -1.44844 -0.284768
rclavicle 1.70271e-014 2.03754e-014
rhumerus -32.3511 9.62372 -75.2754
rradius 103.071
rwrist 2.46638
rhand -35.0367 3.23712
rfingers 7.12502
rthumb -8.18019 -26.5845
lclavicle 1.70271e-014 2.03754e-014
lhumerus -55.4216 -6.80972 91.4933
lradius 93.9724
lwrist 11.2857
lhand -26.2594 -8.95931
lfingers 7.12502
lthumb 0.295224 21.0202
rfemur -42.7845 -6.88004 22.1758
rtibia 72.2441
rfoot -10.5911 -6.70865
rtoes -9.39546
lfemur -29.0594 0.118261 -18.9922
ltibia 75.7861
lfoot -20.5144 -5.89975
ltoes 7.48319
18
root 1.12817 14.8947 0.0472094 -20.6991 3.46387 -4.04653
lowerback 22.2179 0.719123 3.08614
upperback 2.27664 1.91949 1.9371
thorax -9.90037 0.830477 -0.208589
lowerneck -22.2333 -2.53238 -3.59802
upperneck 21.6818 -1.83168 -1.73309
head 10.6827 -1.36307 -0.315626
rclavicle -2.75379e-014 -2.71341e-014
rhumerus -32.1823 8.99944 -75.5303
rradius 102.88
rwrist 1.30735
rhand -35.1728 3.11901
rfingers 7.12502
rthumb -8.3115 -26.6975
lclavicle -2.75379e-014 -2.71341e-014
lhumerus -54.3507 -6.41271 91.9017
lradius 92.57
lwrist 10.8167
lhand -26.3172 -9.03458
lfingers 7.12502
lthumb 0.2394 20.945
rfemur -42.0647 -6.31238 22.2818
rtibia 66.1585
rfoot -10.04 -4.8164
rtoes -12.265
lfemur -27.4332 0.143386 -19.0971
ltibia 76.1228
lfoot -21.9788 -5.67133
ltoes 7.85722
19
root 1.14122 14.9513 0.442884 -20.7008 3.51233 -4.0046
lowerback 21.9418 0.602664 3.09274
upperback 2.232 1.75448 1.91552
thorax -9.80302 0.753057 -0.182816
lowerneck -21.9385 -2.39401 -3.46046
upperneck 21.6503 -1.66007 -1.889
head 10.6123 -1.29174 -0.3635
rclavicle -3.89121e-014 -1.21259e-014
rhumerus -32.1884 8.35954 -75.8043
rradius 102.56
rwrist 0.0689418
rhand -35.1341 2.89173
rfingers 7.12502
rthumb -8.27419 -26.9262
lclavicle -3.89121e-014 -1.21259e-014
lhumerus -53.4721 -6.05129 92.2697
lradius 91.2058
lwrist 9.53157
lhand -26.2271 -9.03682
lfingers 7.12502
lthumb 0.326437 20.9427
rfemur -40.9873 -5.63818 22.3533
rtibia 60.2171
rfoot -8.15521 -2.86828
rtoes -18.4771
lfemur -25.7823 0.230674 -19.1403
ltibia 76.3331
lfoot -23.2983 -5.52199
ltoes 8.14824
20
root 1.14171 15.0088 0.834929 -20.6779 3.74174 -4.15345
lowerback 21.5804 0.42996 3.11491
upperback 2.20963 1.51999 1.94535
thorax -9.637 0.644397 -0.0890808
lowerneck -21.7856 -2.302 -3.44829
upperneck 21.7029 -1.56446 -1.80493
head 10.6027 -1.23663 -0.319114
rclavicle -6.37353e-015 2.05742e-014
rhumerus -32.3327 7.66813 -76.0905
rradius 102.224
rwrist -1.01966
rhand -34.8525 2.87667
rfingers 7.12502
rthumb -8.00241 -26.9518
lclavicle -6.37353e-015 2.05742e-014
lhumerus -52.5984 -5.85647 92.5851
lradius 89.8447
lwrist 7.61256
lhand -26.6217 -8.90792
lfingers 7.12502
lthumb -0.0547293 21.0718
rfemur -39.7018 -4.9951 22.533
rtibia 54.7026
rfoot -6.9434 -1.51992
rtoes -17.0782
lfemur -24.2263 0.279431 -18.9723
ltibia 76.5246
lfoot -24.561 -5.48957
ltoes 7.42824
21
root 1.12544 15.0634 1.22413 -20.8541 4.23345 -4.43354
lowerback 21.4509 0.188446 3.05789
upperback 2.20957 1.18681 1.97882
thorax -9.57553 0.490451 0.0784486
lowerneck -21.6778 -2.25525 -3.33876
upperneck 21.7918 -1.56193 -1.72316
head 10.614 -1.21675 -0.306833
rclavicle 1.28527e-014 3.0911e-014
rhumerus -32.6473 7.00368 -76.4459
rradius 101.891
rwrist -1.64737
rhand -34.57 2.75642
rfingers 7.12502
rthumb -7.72971 -27.0823
lclavicle 1.28527e-014 3.0911e-014
lhumerus -51.8294 -5.90197 92.7761
lradius 88.6561
lwrist 5.81214
lhand -26.6495 -9.05575
lfingers 7.12502
lthumb -0.0815266 20.924
rfemur -38.0105 -4.58981 22.8268
rtibia 49.8611
rfoot -6.3184 -1.24343
rtoes -16.4789
lfemur -22.477 0.139159 -18.6155
ltibia 76.7192
lfoot -25.5905 -5.73216
ltoes 7.22588
22
root 1.10359 15.1115 1.6144 -20.967 4.67816 -4.55662
lowerback 21.2071 0.0284157 2.81761
upperback 2.2326 0.905303 1.94963
thorax -9.42549 0.367634 0.265722
lowerneck -21.7014 -2.24422 -3.27889
upperneck 21.9633 -1.61906 -1.51236
head 10.6819 -1.2132 -0.251438
rclavicle -1.45361e-015 -8.79622e-015
rhumerus -33.089 6.37667 -76.8233
rradius 101.637
rwrist -1.73687
rhand -34.6538 2.32316
rfingers 7.12502
rthumb -7.81061 -27.5126
lclavicle -1.45361e-015 -8.79622e-015
lhumerus -51.0829 -6.29339 92.8972
lradius 87.7221
lwrist 4.55686
lhand -26.6824 -9.23979
lfingers 7.12502
lthumb -0.113322 20.7399
rfemur -36.2716 -3.89414 22.9937
rtibia 45.8425
rfoot -5.77783 -1.80226
rtoes -16.6063
lfemur -20.8374 0.0219514 -18.3415
ltibia 77.0249
lfoot -26.4259 -6.11552
ltoes 6.19969
23
root 1.07133 15.1533 2.0149 -20.9785 5.34338 -4.7947
lowerback 20.7133 -0.16478 2.57602
upperback 2.21856 0.571814 1.91635
thorax -9.17861 0.219932 0.461829
lowerneck -21.6806 -2.29085 -3.26241
upperneck 22.1425 -1.77173 -1.20189
head 10.7469 -1.24388 -0.167084
rclavicle 6.02721e-015 -7.92654e-015
rhumerus -33.7068 5.82956 -77.1722
rradius 101.43
rwrist -1.51998
rhand -35.1185 2.11769
rfingers 7.12502
rthumb -8.25912 -27.7009
lclavicle 6.02721e-015 -7.92654e-015
lhumerus -50.4421 -7.02394 93.0235
lradius 87.0682
lwrist 4.28515
lhand -26.6327 -9.55403
lfingers 7.12502
lthumb -0.0653181 20.4257
rfemur -34.5532 -3.35824 23.2281
rtibia 42.7147
rfoot -5.096 -2.57338
rtoes -15.1793
lfemur -19.5228 -0.267845 -17.87
ltibia 77.5557
lfoot -26.8689 -6.88623
ltoes 4.57558
24
root 1.03806 15.1858 2.42126 -20.9219 6.21155 -4.81195
lowerback 20.0687 -0.342888 2.11989
upperback 2.17405 0.198736 1.78274
thorax -8.88035 0.0578361 0.676579
lowerneck -21.5574 -2.35562 -3.26835
upperneck 22.3116 -1.94591 -0.899034
head 10.7903 -1.28672 -0.0836544
rclavicle -1.45144e-014 1.32937e-014
rhumerus -34.5359 5.32697 -77.478
rradius 101.315
rwrist -0.886033
rhand -34.866 1.96099
rfingers 7.12502
rthumb -8.01542 -27.867
lclavicle -1.45144e-014 1.32937e-014
lhumerus -49.9357 -8.01952 93.142
lradius 86.7532
lwrist 4.93814
lhand -26.5005 -9.74095
lfingers 7.12502
lthumb 0.0623021 20.2388
rfemur -32.8227 -2.97927 23.1622
rtibia 40.3712
rfoot -4.23365 -2.82103
rtoes -14.0528
lfemur -18.4953 -0.716845 -17.6227
ltibia 78.3237
lfoot -26.734 -8.2058
ltoes 3.58175
25
root 0.999714 15.1958 2.82812 -20.7864 7.24067 -4.6665
lowerback 19.4389 -0.496391 1.43566
upperback 2.04974 -0.186825 1.59424
thorax -8.67177 -0.105766 0.960559
lowerneck -21.3547 -2.4499 -3.2451
upperneck 22.4996 -2.15754 -0.663684
head 10.8259 -1.35275 -0.034303
rclavicle -1.37658e-014 1.49089e-014
rhumerus -35.4565 5.00333 -77.7057
rradius 101.222
rwrist -0.411583
rhand -34.9561 1.88392
rfingers 7.12502
rthumb -8.10239 -27.9407
lclavicle -1.37658e-014 1.49089e-014
lhumerus -49.5795 -9.17004 93.283
lradius 86.7239
lwrist 6.10407
lhand -26.5013 -9.62564
lfingers 7.12502
lthumb 0.061578 20.3541
rfemur -31.1546 -2.67114 22.9194
rtibia 38.6709
rfoot -3.55167 -2.76518
rtoes -13.0731
lfemur -17.8116 -1.14242 -17.5264
ltibia 79.4375
lfoot -26.1684 -9.40911
ltoes 0.980362
26
root 0.953132 15.2029 3.23889 -20.6295 8.5396 -4.59107
lowerback 18.7276 -0.696642 0.738758
upperback 1.92437 -0.62903 1.40115
thorax -8.41057 -0.297947 1.25465
lowerneck -21.2518 -2.57543 -3.35959
upperneck 22.7419 -2.38591 -0.342281
head 10.9048 -1.42758 0.0648911
rclavicle 1.50828e-014 -9.34288e-015
rhumerus -36.3829 4.73862 -77.8112
rradius 101.17
rwrist 0.0220558
rhand -34.9655 1.76728
rfingers 7.12502
rthumb -8.11149 -28.057
lclavicle 1.50828e-014 -9.34288e-015
lhumerus -49.2687 -10.4385 93.3997
lradius 86.9284
lwrist 7.52028
lhand -26.3211 -9.37945
lfingers 7.12502
lthumb 0.235587 20.6002
rfemur -29.4992 -2.42194 22.6708
rtibia 37.6667
rfoot -2.75328 -2.48827
rtoes -14.433
lfemur -17.4946 -1.67391 -17.2498
ltibia 80.7722
lfoot -24.8719 -11.1457
ltoes -1.03941
27
root 0.91631 15.2107 3.63595 -20.466 9.60039 -4.38143
lowerback 18.2618 -0.822266 0.0970652
upperback 1.69936 -0.951895 1.16323
thorax -8.38832 -0.435505 1.4391
lowerneck -21.1084 -2.69531 -3.42984
upperneck 23.0261 -2.59187 -0.141223
head 10.9904 -1.50389 0.117081
rclavicle 1.04859e-014 -1.68967e-014
rhumerus -37.4022 4.60377 -77.8368
rradius 101.134
rwrist 0.286551
rhand -34.7706 1.83561
rfingers 7.12502
rthumb -7.92333 -27.9959
lclavicle 1.04859e-014 -1.68967e-014
lhumerus -49.1573 -11.577 93.4275
lradius 87.2783
lwrist 8.53665
lhand -25.9346 -9.29618
lfingers 7.12502
lthumb 0.608944 20.6827
rfemur -28.4835 -2.07847 22.2968
rtibia 37.7704
rfoot 1.05313 -1.72859
rtoes -16.5019
lfemur -17.4429 -1.84238 -16.9739
ltibia 82.2722
lfoot -22.8894 -13.0449
ltoes -2.3553
28
root 0.867884 15.2703 3.99415 -20.245 10.8428 -4.1391
lowerback 18.103 -0.960631 -0.696045
upperback 1.41438 -1.31452 0.950435
thorax -8.59041 -0.582697 1.75266
lowerneck -21.0126 -2.83951 -3.60722
upperneck 23.266 -2.80463 0.0944366
head 11.0723 -1.58782 0.198333
rclavicle 4.67641e-014 8.54774e-015
rhumerus -38.2531 4.66226 -77.6482
rradius 101.117
rwrist 0.376124
rhand -34.5042 1.98705
rfingers 7.12502
rthumb -7.66623 -27.854
lclavicle 4.67641e-014 8.54774e-015
lhumerus -48.9301 -12.5023 93.3868
lradius 87.5777
lwrist 8.98938
lhand -25.5065 -9.6208
lfingers 7.12502
lthumb 1.02236 20.3565
rfemur -28.9771 -1.91696 21.7455
rtibia 38.9887
rfoot 10.0074 -0.306968
rtoes -0.13207
lfemur -17.6941 -2.06119 -16.6363
ltibia 83.616
lfoot -20.2245 -14.8115
ltoes -2.88377
